<svg width="477" height="210" viewBox="0 0 477 210" fill="none" xmlns="http://www.w3.org/2000/svg">
<path d="M205.92 83.256H210.72V40.152H205.92V24.312H244.896C255.584 24.312 264.064 27.256 270.336 33.144C276.672 38.968 279.84 48.472 279.84 61.656C279.84 74.84 276.672 84.376 270.336 90.264C264.064 96.088 255.584 99 244.896 99H205.92V83.256ZM243.168 83.256C245.344 83.256 246.976 82.68 248.064 81.528C249.152 80.376 249.696 78.584 249.696 76.152V47.16C249.696 42.424 247.52 40.056 243.168 40.056H237.6V83.256H243.168ZM311.492 100.344C302.404 100.344 295.3 97.976 290.18 93.24C285.06 88.44 282.5 81.464 282.5 72.312C282.5 63.16 285.06 56.216 290.18 51.48C295.3 46.68 302.404 44.28 311.492 44.28C320.516 44.28 327.012 46.648 330.98 51.384C335.012 56.056 337.028 61.88 337.028 68.856V75.768H305.924V76.344C305.924 78.712 306.628 80.472 308.036 81.624C309.444 82.712 311.78 83.256 315.044 83.256C318.948 83.256 322.66 82.968 326.18 82.392C329.7 81.816 332.772 81.08 335.396 80.184V95.544C333.156 96.76 329.86 97.88 325.508 98.904C321.22 99.864 316.548 100.344 311.492 100.344ZM317.06 65.208V64.056C317.06 61.88 316.58 60.312 315.62 59.352C314.724 58.392 313.348 57.912 311.492 57.912C309.636 57.912 308.228 58.424 307.268 59.448C306.372 60.408 305.924 61.944 305.924 64.056V65.208H317.06ZM355.244 99L343.148 61.368H339.116V45.624H368.78V61.368H364.748L369.836 80.376H370.796L375.884 61.368H371.852V45.624H399.692V61.368H395.66L383.852 99H355.244Z" fill="#252525"/>
<path d="M56.128 147.536C53.7813 147.536 51.648 147.408 49.728 147.152C47.8507 146.896 45.12 146.299 41.536 145.36C42.3893 143.867 43.4773 142.267 44.8 140.56C46.1653 138.853 47.7653 137.403 49.6 136.208C51.4347 134.971 53.5253 134.352 55.872 134.352C56 134.352 56.1067 134.352 56.192 134.352C56.2773 134.352 56.384 134.352 56.512 134.352C61.3333 134.267 65.5787 133.2 69.248 131.152C72.96 129.104 76.1173 126.416 78.72 123.088C81.3653 119.717 83.456 115.984 84.992 111.888C86.5707 107.749 87.616 103.547 88.128 99.28C88.9813 92.5813 88.5547 86.608 86.848 81.36C85.1413 76.112 81.8987 71.9947 77.12 69.008C72.384 65.9787 65.8987 64.464 57.664 64.464C56 64.464 54.2293 64.5493 52.352 64.72C50.4747 64.8907 48.5333 65.1467 46.528 65.488L36.672 146H18.624L29.76 54.608C35.648 53.3707 41.088 52.5173 46.08 52.048C51.1147 51.536 55.488 51.28 59.2 51.28C70.5493 51.28 80.0213 53.1787 87.616 56.976C95.2533 60.7307 100.779 66.192 104.192 73.36C107.605 80.528 108.693 89.168 107.456 99.28C106.645 106.021 104.747 112.315 101.76 118.16C98.7733 124.005 94.9547 129.125 90.304 133.52C85.696 137.915 80.4693 141.349 74.624 143.824C68.8213 146.299 62.656 147.536 56.128 147.536ZM128.585 146L138.313 66.128H113.993L115.657 52.944H182.473L180.809 66.128H156.489L146.761 146H128.585Z" fill="#252525"/>
<path d="M277.536 126.544H261.024V119.056H254.88V162.256H261.6V178H221.28V162.256H228V119.056H221.856V126.544H205.344V103.312H277.536V126.544ZM335.102 162.256V178H309.758V171.472C308.35 173.52 306.366 175.344 303.806 176.944C301.31 178.544 298.238 179.344 294.59 179.344C289.79 179.344 286.014 178.064 283.262 175.504C280.51 172.944 279.134 169.328 279.134 164.656C279.134 152.56 289.406 146.352 309.95 146.032C309.758 143.856 308.926 142.384 307.454 141.616C305.982 140.784 303.486 140.368 299.966 140.368C297.086 140.368 293.982 140.688 290.654 141.328C287.39 141.904 284.382 142.704 281.63 143.728V126.064C285.022 125.232 288.702 124.56 292.67 124.048C296.638 123.536 300.51 123.28 304.286 123.28C313.822 123.28 320.638 125.008 324.734 128.464C328.83 131.92 330.878 137.264 330.878 144.496V162.256H335.102ZM309.758 155.536C306.878 155.536 304.638 155.92 303.038 156.688C301.502 157.456 300.734 158.736 300.734 160.528C300.734 161.616 301.054 162.512 301.694 163.216C302.398 163.856 303.358 164.176 304.574 164.176C306.238 164.176 307.518 163.472 308.414 162.064C309.31 160.656 309.758 158.672 309.758 156.112V155.536ZM338.197 178.096V162.256H342.421V119.056H338.197V103.312H364.501V162.256H368.725V178.096H338.197ZM400.367 179.344C391.279 179.344 384.175 176.976 379.055 172.24C373.935 167.44 371.375 160.464 371.375 151.312C371.375 142.16 373.935 135.216 379.055 130.48C384.175 125.68 391.279 123.28 400.367 123.28C409.391 123.28 415.887 125.648 419.855 130.384C423.887 135.056 425.903 140.88 425.903 147.856V154.768H394.799V155.344C394.799 157.712 395.503 159.472 396.911 160.624C398.319 161.712 400.655 162.256 403.919 162.256C407.823 162.256 411.535 161.968 415.055 161.392C418.575 160.816 421.647 160.08 424.271 159.184V174.544C422.031 175.76 418.735 176.88 414.383 177.904C410.095 178.864 405.423 179.344 400.367 179.344ZM405.935 144.208V143.056C405.935 140.88 405.455 139.312 404.495 138.352C403.599 137.392 402.223 136.912 400.367 136.912C398.511 136.912 397.103 137.424 396.143 138.448C395.247 139.408 394.799 140.944 394.799 143.056V144.208H405.935ZM452.087 179.344C444.023 179.344 436.247 178.064 428.759 175.504V161.296H444.311V162.256C444.311 165.328 446.263 166.864 450.167 166.864C453.623 166.864 455.351 165.68 455.351 163.312C455.351 162.032 454.839 161.072 453.815 160.432C452.855 159.792 451.127 159.248 448.631 158.8L443.831 157.936C433.783 156.144 428.759 150.448 428.759 140.848C428.759 135.28 430.871 130.96 435.095 127.888C439.319 124.816 445.015 123.28 452.183 123.28C460.183 123.28 466.935 124.624 472.439 127.312V140.656H457.847V139.696C457.847 138.416 457.399 137.456 456.503 136.816C455.671 136.112 454.423 135.76 452.759 135.76C449.559 135.76 447.959 136.784 447.959 138.832C447.959 139.92 448.407 140.752 449.303 141.328C450.199 141.904 451.831 142.448 454.199 142.96L459.671 144.016C465.367 145.104 469.431 147.12 471.863 150.064C474.295 153.008 475.511 156.784 475.511 161.392C475.511 167.216 473.463 171.664 469.367 174.736C465.335 177.808 459.575 179.344 452.087 179.344Z" fill="#252525"/>
</svg>
